<svg xmlns="http://www.w3.org/2000/svg" viewBox="0 0 32 32" width="32" height="32">
  <path d="M 30.0625 19.0625 L 26.0625 19.0625" fill="none" stroke="#808080" stroke-width="1" stroke-linecap="round" stroke-linejoin="round"/>
  <path d="M 25.927707423758907 14.95395820339413 L 25.927707423758907 18.95395820339413" fill="none" stroke="#808080" stroke-width="1" stroke-linecap="round" stroke-linejoin="round"/>
  <path d="M 25.9375 15 L 29.9375 15" fill="none" stroke="#808080" stroke-width="1" stroke-linecap="round" stroke-linejoin="round"/>
  <path d="M 30.1875 19 L 30.1875 15" fill="none" stroke="#808080" stroke-width="1" stroke-linecap="round" stroke-linejoin="round"/>
  <path d="M 28 28 L 28 27" fill="none" stroke="#808080" stroke-width="1" stroke-linecap="round" stroke-linejoin="round"/>
  <path d="M 2 21 L 2 24" fill="none" stroke="#808080" stroke-width="1" stroke-linecap="round" stroke-linejoin="round"/>
  <path d="M 2 24 L 5 24" fill="none" stroke="#808080" stroke-width="1" stroke-linecap="round" stroke-linejoin="round"/>
  <path d="M 5 24 L 5 21" fill="none" stroke="#808080" stroke-width="1" stroke-linecap="round" stroke-linejoin="round"/>
  <path d="M 5 21 L 2 21" fill="none" stroke="#808080" stroke-width="1" stroke-linecap="round" stroke-linejoin="round"/>
  <path d="M 5 11 L 5 14" fill="none" stroke="#808080" stroke-width="1" stroke-linecap="round" stroke-linejoin="round"/>
  <path d="M 5 11 L 8 11" fill="none" stroke="#808080" stroke-width="1" stroke-linecap="round" stroke-linejoin="round"/>
  <path d="M 8 11 L 8 14" fill="none" stroke="#808080" stroke-width="1" stroke-linecap="round" stroke-linejoin="round"/>
  <path d="M 6 14 L 8 14" fill="none" stroke="#808080" stroke-width="1" stroke-linecap="round" stroke-linejoin="round"/>
  <path d="M 5 14 L 6 14" fill="none" stroke="#808080" stroke-width="1" stroke-linecap="round" stroke-linejoin="round"/>
  <path d="M 10 4 L 10 7" fill="none" stroke="#808080" stroke-width="1" stroke-linecap="round" stroke-linejoin="round"/>
  <path d="M 10 7 L 13 7" fill="none" stroke="#808080" stroke-width="1" stroke-linecap="round" stroke-linejoin="round"/>
  <path d="M 10 4 L 13 4" fill="none" stroke="#808080" stroke-width="1" stroke-linecap="round" stroke-linejoin="round"/>
  <path d="M 13 4 L 13 7" fill="none" stroke="#808080" stroke-width="1" stroke-linecap="round" stroke-linejoin="round"/>
  <path d="M 15 11 L 18 11" fill="none" stroke="#808080" stroke-width="1" stroke-linecap="round" stroke-linejoin="round"/>
  <path d="M 15 11 L 15 14" fill="none" stroke="#808080" stroke-width="1" stroke-linecap="round" stroke-linejoin="round"/>
  <path d="M 15 14 L 18 14" fill="none" stroke="#808080" stroke-width="1" stroke-linecap="round" stroke-linejoin="round"/>
  <path d="M 18 11 L 18 14" fill="none" stroke="#808080" stroke-width="1" stroke-linecap="round" stroke-linejoin="round"/>
  <path d="M 10 27 L 13 27" fill="none" stroke="#808080" stroke-width="1" stroke-linecap="round" stroke-linejoin="round"/>
  <path d="M 10 27 L 10 30" fill="none" stroke="#808080" stroke-width="1" stroke-linecap="round" stroke-linejoin="round"/>
  <path d="M 10 30 L 13 30" fill="none" stroke="#808080" stroke-width="1" stroke-linecap="round" stroke-linejoin="round"/>
  <path d="M 13 27 L 13 30" fill="none" stroke="#808080" stroke-width="1" stroke-linecap="round" stroke-linejoin="round"/>
  <path d="M 26 17 Q 19.1875 19.3125 13 27" fill="none" stroke="#808080" stroke-width="1" stroke-linecap="round" stroke-linejoin="round"/>
  <path d="M 5 22 Q 16.25 17 26 17" fill="none" stroke="#808080" stroke-width="1" stroke-linecap="round" stroke-linejoin="round"/>
  <path d="M 7.8125 12.4375 L 14.8125 12.4375" fill="none" stroke="#808080" stroke-width="1" stroke-linecap="round" stroke-linejoin="round"/>
  <path d="M 13 5 Q 12.5 9.25 16 11" fill="none" stroke="#808080" stroke-width="1" stroke-linecap="round" stroke-linejoin="round"/>
  <path d="M 18 13 Q 20.8125 13.25 26 17" fill="none" stroke="#808080" stroke-width="1" stroke-linecap="round" stroke-linejoin="round"/>
  <path d="M 5 21 Q 10.1875 17.75 15 14" fill="none" stroke="#808080" stroke-width="1" stroke-linecap="round" stroke-linejoin="round"/>
  <path d="M 27.08361633589458 16.139360559824297 Q 28.043454375916447 16.121914383555833 29.08361633589458 16.139360559824297" fill="none" stroke="#808080" stroke-width="1.9999999999999996" stroke-linecap="round" stroke-linejoin="round"/>
  <path d="M 27.055744223929718 17.728070941821297 Q 28.015582263951586 17.710624765552833 29.055744223929718 17.728070941821297" fill="none" stroke="#808080" stroke-width="2.3784142300054416" stroke-linecap="round" stroke-linejoin="round"/>
</svg>